<?xml version="1.0" standalone="no"?><!DOCTYPE svg PUBLIC "-//W3C//DTD SVG 1.1//EN" "http://www.w3.org/Graphics/SVG/1.1/DTD/svg11.dtd"><svg t="1770458298147" class="icon" viewBox="0 0 1171 1024" version="1.1" xmlns="http://www.w3.org/2000/svg" p-id="4536" xmlns:xlink="http://www.w3.org/1999/xlink" width="228.7109375" height="200"><path d="M681.353846 470.646154c323.938462-30.523077 302.276923 159.507692 301.292308 167.384615 0 6.892308 0.984615 25.6 2.953846 44.307693l0.984615 5.907692c1.969231 23.630769 4.923077 48.246154 4.923077 51.2 0 57.107692-22.646154 96.492308-53.16923 122.092308-46.276923 37.415385-110.276923 48.246154-153.6 48.246153-86.646154 0.984615-149.661538-6.892308-194.953847-19.692307-84.676923-23.630769-106.338462-59.076923-108.307692-62.03077-143.753846-326.892308 199.876923-357.415385 199.876923-357.415384z" fill="#FBFBFB" p-id="4537"></path><path d="M357.415385 606.523077l-124.061539 16.738461c-13.784615 0-21.661538-2.953846-21.661538-7.876923 0 0-7.876923-45.292308-23.63077-134.892307-12.8-58.092308-109.292308-43.323077-109.292307 9.846154 0 0-2.953846 22.646154 0 36.430769 0 0-30.523077 0.984615-42.338462 31.507692 0 0-35.446154 88.615385-17.723077 200.861539 0 0 25.6 128 283.569231 128 0 0 273.723077 206.769231 341.661539 79.753846 0 0 16.738462-47.261538-36.43077-56.123077 0 0-105.353846-13.784615-201.846154-115.2" fill="#D3D3D3" p-id="4538"></path><path d="M569.107692 1011.2c-102.4 0-251.076923-108.307692-267.815384-121.107692-257.969231 0-286.523077-126.030769-287.507693-130.953846-17.723077-112.246154 17.723077-202.830769 17.723077-203.815385 9.846154-25.6 31.507692-32.492308 41.353846-33.476923-1.969231-13.784615 0.984615-31.507692 0.984616-32.492308 0-30.523077 28.553846-48.246154 55.138461-50.215384 26.584615-2.953846 57.107692 8.861538 64 40.36923L216.615385 613.415385c0 1.969231 2.953846 3.938462 16.738461 3.938461L356.430769 600.615385l0.984616 9.846153-124.061539 16.738462c-6.892308 0-26.584615 0-26.584615-12.8l-23.630769-133.907692c-5.907692-27.569231-32.492308-34.461538-53.169231-32.492308-22.646154 1.969231-46.276923 16.738462-46.276923 41.353846 0 0.984615-2.953846 22.646154 0 35.446154l0.984615 5.907692H78.769231c-0.984615 0-27.569231 0.984615-38.4 28.553846 0 0.984615-35.446154 88.615385-17.723077 197.907693 0 0.984615 28.553846 123.076923 278.646154 123.076923h1.96923l0.984616 0.984615c1.969231 0.984615 187.076923 139.815385 286.523077 117.169231 21.661538-4.923077 37.415385-16.738462 48.246154-36.430769 0 0 5.907692-17.723077-2.953847-31.507693-4.923077-8.861538-15.753846-14.769231-30.523076-17.723076-1.969231 0.984615-105.353846-13.784615-201.846154-115.2l6.892307-6.892308c93.538462 98.461538 197.907692 113.230769 198.892308 114.215384 17.723077 2.953846 30.523077 10.830769 37.415385 22.646154 10.830769 18.707692 2.953846 39.384615 2.953846 40.369231-11.815385 22.646154-30.523077 36.430769-55.138462 42.338462-7.876923 0.984615-16.738462 0.984615-25.6 0.984615z" fill="#BBBBBB" p-id="4539"></path><path d="M993.476923 719.753846c28.553846 8.861538 36.430769 3.938462 44.307692 3.938462h73.846154c28.553846 2.953846 43.323077 23.630769 43.323077 62.030769 0 37.415385-21.661538 59.076923-64 64.984615l-142.769231 5.907693 9.846154-12.8c44.307692-55.138462 35.446154-124.061538 35.446154-124.061539z" fill="#D3D3D3" p-id="4540"></path><path d="M938.338462 862.523077l16.738461-21.661539c42.338462-53.169231 34.461538-119.138462 34.461539-120.123076l-0.984616-7.876924 6.892308 1.969231c20.676923 6.892308 29.538462 4.923077 36.430769 3.938462 1.969231 0 4.923077-0.984615 6.892308-0.984616h73.846154c31.507692 3.938462 48.246154 25.6 48.246153 66.953847 0 40.369231-22.646154 64-68.923076 69.907692l-153.6 7.876923z m61.046153-135.876923c0.984615 19.692308 0 73.846154-36.430769 120.123077l-3.938461 4.923077 131.938461-6.892308c39.384615-4.923077 59.076923-24.615385 59.076923-60.061538 0-35.446154-12.8-54.153846-38.4-57.107693h-73.846154c-1.969231 0-2.953846 0-4.923077 0.984616-5.907692 1.969231-15.753846 2.953846-33.476923-1.969231z" fill="#BBBBBB" p-id="4541"></path><path d="M580.923077 138.830769c12.8 0.984615 20.676923-1.969231 25.6-9.846154 0 0 61.046154-94.523077 8.861538-111.261538 0 0-43.323077-17.723077-43.323077 51.2 0 0 0 6.892308-7.876923 0 0 0-10.830769-8.861538-31.507692-26.584615-14.769231-9.846154-27.569231-4.923077-36.430769 13.784615s19.692308 47.261538 84.676923 82.707692z" fill="#D3D3D3" p-id="4542"></path><path d="M584.861538 143.753846H580.923077l-1.969231-0.984615c-69.907692-37.415385-97.476923-65.969231-86.646154-87.630769 4.923077-11.815385 11.815385-18.707692 19.692308-20.676924 6.892308-1.969231 14.769231-0.984615 22.646154 4.923077l31.507692 26.584616c0.984615-24.615385 6.892308-40.369231 18.707692-49.230769 14.769231-9.846154 30.523077-2.953846 31.507693-2.953847 10.830769 2.953846 17.723077 9.846154 21.661538 19.692308 12.8 34.461538-26.584615 95.507692-28.553846 98.461539-3.938462 7.876923-12.8 11.815385-24.615385 11.815384z m-2.953846-9.846154c9.846154 0.984615 16.738462-1.969231 19.692308-6.892307 0-0.984615 38.4-60.061538 27.569231-89.6-2.953846-6.892308-7.876923-11.815385-15.753846-13.784616-0.984615 0-12.8-4.923077-22.646154 1.969231-9.846154 6.892308-14.769231 21.661538-14.769231 44.307692 0 1.969231-0.984615 5.907692-3.938462 6.892308-4.923077 1.969231-9.846154-1.969231-11.815384-2.953846l-31.507692-26.584616c-4.923077-2.953846-9.846154-3.938462-14.769231-2.953846-4.923077 1.969231-9.846154 6.892308-13.784616 15.753846-3.938462 7.876923 0.984615 29.538462 81.723077 73.846154z m-15.753846-64z" fill="#BBBBBB" p-id="4543"></path><path d="M1000.369231 493.292308s-12.8-161.476923-382.030769-329.846154h-0.984616c-4.923077 0-23.630769 1.969231-15.753846 30.523077 0 0-6.892308 8.861538-13.784615 14.769231 0 0-360.369231 238.276923-192 580.923076 0 0 45.292308 128.984615 336.738461 128.984616 97.476923 0 168.369231-19.692308 212.676923-61.046154 44.307692-40.369231 62.030769-102.4 54.153846-185.107692 13.784615-70.892308 14.769231-129.969231 0.984616-179.2z m-62.030769 367.261538c-45.292308 37.415385-110.276923 48.246154-153.6 48.246154-86.646154 0.984615-149.661538-6.892308-194.953847-19.692308-84.676923-23.630769-106.338462-59.076923-108.307692-62.030769-143.753846-325.907692 199.876923-356.430769 199.876923-356.430769 323.938462-30.523077 302.276923 159.507692 301.292308 167.384615 0 6.892308 0.984615 25.6 2.953846 44.307693l0.984615 5.907692c1.969231 23.630769 4.923077 48.246154 4.923077 51.2 0 57.107692-22.646154 95.507692-53.16923 121.107692z" fill="#D3D3D3" p-id="4544"></path><path d="M733.538462 923.569231c-290.461538 0-338.707692-127.015385-340.676924-132.923077C224.492308 448.984615 582.892308 206.769231 586.830769 203.815385c3.938462-2.953846 8.861538-8.861538 10.830769-11.815385-2.953846-10.830769-1.969231-19.692308 2.953847-25.6 5.907692-7.876923 14.769231-8.861538 17.723077-8.861538H621.292308c360.369231 166.4 383.015385 322.953846 384 334.76923 12.8 50.215385 12.8 109.292308 0 180.184616 7.876923 84.676923-9.846154 146.707692-56.123077 188.061538-44.307692 41.353846-117.169231 63.015385-215.630769 63.015385zM617.353846 168.369231c-2.953846 0-7.876923 0.984615-9.846154 4.923077-2.953846 3.938462-2.953846 10.830769 0 19.692307l0.984616 1.969231-1.969231 1.969231s-7.876923 9.846154-13.784615 15.753846c-3.938462 1.969231-356.430769 239.261538-191.015385 574.030769 0 0.984615 11.815385 32.492308 58.092308 63.015385 43.323077 28.553846 125.046154 63.015385 273.723077 63.015385h3.938461c-57.107692-1.969231-107.323077-7.876923-148.676923-19.692308-88.615385-24.615385-110.276923-63.015385-111.261538-64-44.307692-99.446154-47.261538-182.153846-9.846154-245.169231 61.046154-103.384615 207.753846-118.153846 214.646154-118.153846 127.015385-11.815385 217.6 7.876923 266.830769 60.061538 46.276923 48.246154 40.369231 106.338462 39.384615 112.246154 0 5.907692 0.984615 19.692308 2.953846 43.323077l0.984616 5.907692c1.969231 21.661538 3.938462 44.307692 4.923077 49.23077 1.969231-19.692308 1.969231-41.353846-0.984616-64.984616V669.538462c12.8-70.892308 12.8-128.984615 0-177.23077v-0.984615c-0.984615 0.984615-18.707692-158.523077-379.076923-322.953846zM748.307692 472.615385c-20.676923 0-42.338462 0.984615-65.96923 2.953846-5.907692 0.984615-148.676923 14.769231-206.769231 114.215384-35.446154 60.061538-31.507692 139.815385 10.830769 235.323077 0 0 20.676923 35.446154 104.369231 59.076923 52.184615 13.784615 117.169231 20.676923 192.984615 19.692308 21.661538 0 98.461538-2.953846 150.646154-47.261538 34.461538-28.553846 52.184615-67.938462 52.184615-118.153847 0-1.969231-2.953846-26.584615-4.923077-50.215384l-0.984615-5.907692c-1.969231-23.630769-2.953846-38.4-2.953846-44.307693 0-2.953846 6.892308-60.061538-36.430769-105.353846C902.892308 492.307692 837.907692 472.615385 748.307692 472.615385z" fill="#BBBBBB" p-id="4545"></path><path d="M591.753846 560.246154c11.815385 0.984615 21.661538 1.969231 31.507692 1.969231 44.307692 0 71.876923-10.830769 83.692308-34.461539 0.984615-1.969231 0-4.923077-1.969231-6.892308-1.969231-0.984615-4.923077 0-6.892307 1.969231-11.815385 23.630769-47.261538 32.492308-105.353846 27.569231-2.953846 0-4.923077 1.969231-4.923077 4.923077-0.984615 2.953846 0.984615 4.923077 3.938461 4.923077zM697.107692 601.6c-13.784615-12.8-32.492308-20.676923-52.184615-20.676923s-38.4 6.892308-52.184615 20.676923c-13.784615 12.8-21.661538 30.523077-21.661539 49.230769 0 12.8 3.938462 24.615385 9.846154 35.446154-5.907692 2.953846-10.830769 6.892308-13.784615 11.815385-3.938462 4.923077-5.907692 10.830769-5.907693 17.723077 0 8.861538 2.953846 16.738462 9.846154 22.646153 5.907692 5.907692 13.784615 9.846154 22.646154 9.846154 7.876923 0 15.753846-2.953846 21.661538-8.861538 5.907692-5.907692 9.846154-12.8 9.846154-21.661539 5.907692 0.984615 11.815385 1.969231 18.707693 1.969231 19.692308 0 38.4-6.892308 52.184615-20.676923 13.784615-12.8 21.661538-30.523077 21.661538-49.230769 0.984615-17.723077-6.892308-35.446154-20.676923-48.246154z m-6.892307 91.569231c-11.815385 11.815385-28.553846 17.723077-45.292308 17.723077-5.907692 0-10.830769-0.984615-16.738462-1.969231-1.969231 0-3.938462-0.984615-5.907692-1.969231l-7.876923-2.953846 0.984615 7.876923v4.923077c0 5.907692-2.953846 10.830769-6.892307 14.769231-8.861538 7.876923-22.646154 7.876923-31.507693-0.984616-3.938462-3.938462-6.892308-9.846154-6.892307-15.753846 0-4.923077 0.984615-8.861538 3.938461-12.8 1.969231-3.938462 5.907692-6.892308 9.846154-8.861538 1.969231-0.984615 2.953846-0.984615 4.923077-1.969231l7.876923-1.969231-4.923077-5.907692c-0.984615-1.969231-1.969231-2.953846-2.953846-4.923077-5.907692-8.861538-8.861538-19.692308-8.861538-30.523077 0-15.753846 6.892308-30.523077 18.707692-42.338461 11.815385-11.815385 28.553846-17.723077 45.292308-17.723077 17.723077 0 33.476923 5.907692 45.292307 17.723077 11.815385 10.830769 18.707692 26.584615 18.707693 42.338461 0.984615 18.707692-5.907692 33.476923-17.723077 45.292308zM940.307692 698.092308c-3.938462-4.923077-7.876923-9.846154-13.784615-11.815385 6.892308-10.830769 9.846154-22.646154 9.846154-35.446154 0-18.707692-7.876923-36.430769-21.661539-49.230769-13.784615-12.8-32.492308-20.676923-52.184615-20.676923s-38.4 6.892308-52.184615 20.676923c-13.784615 12.8-21.661538 30.523077-21.661539 49.230769s7.876923 36.430769 21.661539 49.230769c13.784615 12.8 32.492308 20.676923 52.184615 20.676924 5.907692 0 12.8-0.984615 18.707692-1.969231 0.984615 7.876923 3.938462 15.753846 9.846154 21.661538 5.907692 5.907692 13.784615 8.861538 21.661539 8.861539 8.861538 0 16.738462-2.953846 22.646153-9.846154 5.907692-5.907692 9.846154-14.769231 9.846154-22.646154 0-7.876923-1.969231-13.784615-4.923077-18.707692z m-11.815384 33.476923c-7.876923 7.876923-22.646154 8.861538-31.507693 0.984615-3.938462-3.938462-6.892308-8.861538-6.892307-14.769231v-4.923077l0.984615-7.876923-7.876923 2.953847c-1.969231 0.984615-3.938462 0.984615-5.907692 1.96923-4.923077 0.984615-10.830769 1.969231-16.738462 1.969231-17.723077 0-33.476923-5.907692-45.292308-17.723077-11.815385-10.830769-18.707692-26.584615-18.707692-42.338461 0-15.753846 6.892308-30.523077 18.707692-42.338462 11.815385-11.815385 28.553846-17.723077 45.292308-17.723077 17.723077 0 33.476923 5.907692 45.292308 17.723077 11.815385 10.830769 18.707692 26.584615 18.707692 42.338462 0 10.830769-2.953846 20.676923-8.861538 30.523077-0.984615 1.969231-1.969231 2.953846-2.953846 4.923076l-4.923077 5.907693 7.876923 1.969231c1.969231 0 2.953846 0.984615 4.923077 1.96923 3.938462 1.969231 7.876923 4.923077 9.846153 8.861539 1.969231 3.938462 3.938462 7.876923 3.938462 12.8 0.984615 2.953846-0.984615 8.861538-5.907692 12.8zM886.153846 562.215385c9.846154 0 20.676923-0.984615 31.507692-1.969231 2.953846 0 4.923077-2.953846 4.923077-4.923077 0-2.953846-2.953846-4.923077-4.923077-4.923077-58.092308 5.907692-93.538462-3.938462-105.353846-27.569231-0.984615-1.969231-3.938462-2.953846-6.892307-1.969231-1.969231 0.984615-2.953846 3.938462-1.969231 6.892308 10.830769 22.646154 38.4 34.461538 82.707692 34.461539zM769.969231 769.969231c-19.692308-0.984615-39.384615 11.815385-61.046154 40.369231-1.969231 1.969231-0.984615 4.923077 0.984615 6.892307 0.984615 0.984615 1.969231 0.984615 2.953846 0.984616 0.984615 0 2.953846-0.984615 3.938462-1.969231 18.707692-24.615385 37.415385-37.415385 52.184615-36.430769 13.784615 0.984615 26.584615 10.830769 39.384616 30.523077 1.969231 1.969231 4.923077 2.953846 6.892307 0.984615 1.969231-0.984615 2.953846-4.923077 0.984616-6.892308-13.784615-22.646154-29.538462-33.476923-46.276923-34.461538z" fill="#BBBBBB" p-id="4546"></path><path d="M144.738462 643.938462h-9.846154c0-72.861538-18.707692-111.261538-55.138462-113.23077l0.984616-9.846154c41.353846 1.969231 64 43.323077 64 123.076924z" fill="#BBBBBB" p-id="4547"></path></svg>