<?xml version="1.0" standalone="no"?><!DOCTYPE svg PUBLIC "-//W3C//DTD SVG 1.1//EN" "http://www.w3.org/Graphics/SVG/1.1/DTD/svg11.dtd"><svg t="1770531869092" class="icon" viewBox="0 0 1024 1024" version="1.1" xmlns="http://www.w3.org/2000/svg" p-id="10262" xmlns:xlink="http://www.w3.org/1999/xlink" width="200" height="200"><path d="M513.8944 238.1312c-209.7152 0-379.6992 169.0624-379.6992 377.6 0 208.4864 169.984 377.5488 379.6992 377.5488s379.7504-169.0624 379.7504-377.5488c0-208.5376-169.984-377.6-379.7504-377.6z m195.2768 343.9104l-74.9056 72.5504 17.7152 102.4512c5.9392 34.4064-13.824 49.4592-45.568 32.9216l-92.5184-48.384-92.5184 48.384c-31.0784 16.2304-51.5584 2.2016-45.5168-32.9216l17.664-102.4-74.8544-72.6016c-25.088-24.3712-18.0224-48.128 17.408-53.248l103.424-14.8992 46.2848-93.2352c15.5136-31.2832 40.448-31.8976 56.2688 0l46.2336 93.184 103.4752 15.0016c34.7648 5.0176 43.008 28.3648 17.408 53.1968zM868.864 20.48H634.0608a26.7264 26.7264 0 0 0-25.8048 20.48L535.9104 182.8864s154.9824 9.216 246.528 96.9216l108.032-216.9344A26.2144 26.2144 0 0 0 896 47.4624 27.0336 27.0336 0 0 0 868.864 20.48zM488.0384 182.8864L415.6928 40.96a26.7264 26.7264 0 0 0-25.8048-20.48H155.136A27.0336 27.0336 0 0 0 128 47.4624c0 5.8368 2.304 11.008 5.4784 15.4112l108.0832 216.9344c91.5456-87.6544 246.528-96.9216 246.528-96.9216z" fill="#6b7280" p-id="10263"></path></svg>