<?xml version="1.0" standalone="no"?><!DOCTYPE svg PUBLIC "-//W3C//DTD SVG 1.1//EN" "http://www.w3.org/Graphics/SVG/1.1/DTD/svg11.dtd"><svg t="1771573900491" class="icon" viewBox="0 0 1024 1024" version="1.1" xmlns="http://www.w3.org/2000/svg" p-id="9038" xmlns:xlink="http://www.w3.org/1999/xlink" width="200" height="200"><path d="M864 160H160c-35.2 0-64 27.3-64 60.6v454.7c0 33.3 28.8 60.6 64 60.6h704c35.2 0 64-27.3 64-60.6V220.6c0-33.3-28.8-60.6-64-60.6z m0 512H160V224h704v448z" fill="#000000" p-id="9039"></path><path d="M960 224H64c-17.6 0-32-14.4-32-32s14.4-32 32-32h896c17.6 0 32 14.4 32 32s-14.4 32-32 32zM688 912c12.4-12.4 12.4-32.8 0-45.3L541.3 720c-12.4-12.4-32.8-12.4-45.3 0-12.4 12.4-12.4 32.8 0 45.3L642.7 912c12.5 12.4 32.9 12.4 45.3 0z" fill="#000000" p-id="9040"></path><path d="M304 912c-12.4-12.4-12.4-32.8 0-45.3L450.7 720c12.4-12.4 32.8-12.4 45.3 0 12.4 12.4 12.4 32.8 0 45.3L349.3 912c-12.5 12.4-32.9 12.4-45.3 0zM512.5 224c-17.3 0-31.5-14.2-31.5-31.5v-65c0-17.3 14.2-31.5 31.5-31.5s31.5 14.2 31.5 31.5v65c0 17.3-14.2 31.5-31.5 31.5zM448 576c-17.6 0-32-14.4-32-32V352c0-17.6 14.4-32 32-32s32 14.4 32 32v192c0 17.6-14.4 32-32 32zM320 576c-17.6 0-32-14.4-32-32v-64c0-17.6 14.4-32 32-32s32 14.4 32 32v64c0 17.6-14.4 32-32 32zM576 576c-17.6 0-32-14.4-32-32V416c0-17.6 14.4-32 32-32s32 14.4 32 32v128c0 17.6-14.4 32-32 32zM704 576c-17.6 0-32-14.4-32-32V384c0-17.6 14.4-32 32-32s32 14.4 32 32v160c0 17.6-14.4 32-32 32z" fill="#000000" p-id="9041"></path></svg>