<?xml version="1.0" standalone="no"?><!DOCTYPE svg PUBLIC "-//W3C//DTD SVG 1.1//EN" "http://www.w3.org/Graphics/SVG/1.1/DTD/svg11.dtd"><svg t="1771593647885" class="icon" viewBox="0 0 1228 1024" version="1.1" xmlns="http://www.w3.org/2000/svg" p-id="2848" xmlns:xlink="http://www.w3.org/1999/xlink" width="239.84375" height="200"><path d="M34.359296 878.153143l3.335314 0.789943 146.285715 43.885714a479.817143 479.817143 0 0 0 263.460571 3.510857l12.288-3.510857a538.331429 538.331429 0 0 1 296.170057-3.774171l13.224229 3.803428a479.817143 479.817143 0 0 0 263.460571 3.510857l12.288-3.510857 146.285714-43.885714a29.257143 29.257143 0 0 1 20.011886 54.857143l-3.218286 1.170285-146.285714 43.885715a538.331429 538.331429 0 0 1-296.170057 3.803428l-13.194971-3.803428a479.817143 479.817143 0 0 0-263.460572-3.510857l-12.288 3.510857a538.331429 538.331429 0 0 1-296.199314 3.803428l-13.194972-3.803428-146.285714-43.885715a29.257143 29.257143 0 0 1 13.487543-56.846628z m0-146.285714l3.335314 0.789942 146.285715 43.885715a479.817143 479.817143 0 0 0 263.460571 3.510857l12.288-3.510857a538.331429 538.331429 0 0 1 296.170057-3.774172l13.224229 3.803429a479.817143 479.817143 0 0 0 263.460571 3.510857l12.288-3.510857 146.285714-43.885714a29.257143 29.257143 0 0 1 20.011886 54.857142l-3.218286 1.170286-146.285714 43.885714a538.331429 538.331429 0 0 1-296.170057 3.803429l-13.194971-3.803429a479.817143 479.817143 0 0 0-263.460572-3.510857l-12.288 3.510857a538.331429 538.331429 0 0 1-296.199314 3.803429l-13.194972-3.803429-146.285714-43.885714a29.257143 29.257143 0 0 1 13.487543-56.846628zM819.21141 0a175.542857 175.542857 0 0 1 175.425829 168.96L994.754267 175.542857a29.257143 29.257143 0 0 1-58.309485 3.423086L936.239982 175.542857a117.028571 117.028571 0 1 0-234.057143 0v438.857143a29.257143 29.257143 0 0 1-58.514286 0V175.542857a175.542857 175.542857 0 0 1 175.542857-175.542857zM409.61141 0a175.542857 175.542857 0 0 1 175.425829 168.96L585.154267 175.542857a29.257143 29.257143 0 0 1-58.309485 3.423086L526.639982 175.542857a117.028571 117.028571 0 1 0-234.057143 0v146.285714h263.314286a29.257143 29.257143 0 0 1 0 58.514286h-263.314286v58.514286h263.314286a29.257143 29.257143 0 0 1 0 58.514286h-263.314286v117.028571a29.257143 29.257143 0 0 1-58.514286 0V175.542857a175.542857 175.542857 0 0 1 175.542857-175.542857z" fill="#000000" p-id="2849"></path></svg>